<svg xmlns="http://www.w3.org/2000/svg" xmlns:xlink="http://www.w3.org/1999/xlink" width="200" zoomAndPan="magnify" viewBox="0 0 150 74.999997" height="100" preserveAspectRatio="xMidYMid meet" version="1.0"><defs><g/><clipPath id="ca3be0a650"><path d="M 22 14.789062 L 44.195312 14.789062 L 44.195312 56 L 22 56 Z M 22 14.789062 " clip-rule="nonzero"/></clipPath><clipPath id="d3b6643065"><path d="M 2.945312 15 L 42 15 L 42 56.039062 L 2.945312 56.039062 Z M 2.945312 15 " clip-rule="nonzero"/></clipPath></defs><g clip-path="url(#ca3be0a650)"><path fill="#4685f6" d="M 40.636719 14.789062 L 22.910156 14.789062 L 33.035156 35.777344 C 33.164062 36.035156 33.144531 36.332031 32.996094 36.574219 C 32.832031 36.832031 32.570312 36.980469 32.273438 36.980469 L 31.347656 36.980469 C 31.050781 36.980469 30.773438 37.128906 30.625 37.40625 C 30.476562 37.667969 30.476562 37.984375 30.640625 38.242188 L 41.730469 55.984375 C 43.210938 55.523438 44.304688 54.113281 44.304688 52.480469 L 44.304688 18.480469 C 44.304688 16.441406 42.65625 14.789062 40.636719 14.789062 Z M 40.636719 14.789062 " fill-opacity="1" fill-rule="evenodd"/></g><g clip-path="url(#d3b6643065)"><path fill="#3152f4" d="M 41.730469 55.984375 L 14.511719 31.214844 C 14.253906 30.976562 14.160156 30.621094 14.289062 30.289062 C 14.421875 29.957031 14.714844 29.75 15.070312 29.75 L 18.425781 29.734375 C 18.777344 29.734375 19.074219 29.527344 19.183594 29.195312 C 19.316406 28.859375 19.242188 28.507812 18.960938 28.269531 L 4.648438 15.382812 C 3.628906 16.03125 2.945312 17.179688 2.945312 18.480469 L 2.945312 52.480469 C 2.945312 54.5 4.59375 56.152344 6.632812 56.152344 L 40.636719 56.152344 C 41.007812 56.152344 41.375 56.097656 41.730469 55.984375 Z M 41.730469 55.984375 " fill-opacity="1" fill-rule="evenodd"/></g><g fill="#222038" fill-opacity="1"><g transform="translate(48.167701, 33.227098)"><g><path d="M 1.640625 -18.90625 L 6.578125 -18.90625 L 11.78125 -6.203125 L 12 -6.203125 L 17.203125 -18.90625 L 22.140625 -18.90625 L 22.140625 0 L 18.265625 0 L 18.265625 -12.3125 L 18.109375 -12.3125 L 13.21875 -0.09375 L 10.578125 -0.09375 L 5.671875 -12.359375 L 5.515625 -12.359375 L 5.515625 0 L 1.640625 0 Z M 1.640625 -18.90625 "/></g></g></g><g fill="#222038" fill-opacity="1"><g transform="translate(71.534673, 33.227098)"><g><path d="M 8.03125 0.28125 C 6.582031 0.28125 5.332031 -0.015625 4.28125 -0.609375 C 3.226562 -1.203125 2.414062 -2.046875 1.84375 -3.140625 C 1.28125 -4.234375 1 -5.53125 1 -7.03125 C 1 -8.488281 1.28125 -9.765625 1.84375 -10.859375 C 2.414062 -11.960938 3.21875 -12.820312 4.25 -13.4375 C 5.28125 -14.050781 6.488281 -14.359375 7.875 -14.359375 C 9.125 -14.359375 10.25 -14.09375 11.25 -13.5625 C 12.257812 -13.039062 13.0625 -12.242188 13.65625 -11.171875 C 14.25 -10.109375 14.546875 -8.773438 14.546875 -7.171875 L 14.546875 -6.078125 L 4.890625 -6.078125 C 4.890625 -5.015625 5.175781 -4.175781 5.75 -3.5625 C 6.332031 -2.957031 7.113281 -2.65625 8.09375 -2.65625 C 8.75 -2.65625 9.316406 -2.789062 9.796875 -3.0625 C 10.285156 -3.34375 10.628906 -3.753906 10.828125 -4.296875 L 14.453125 -4.0625 C 14.179688 -2.75 13.484375 -1.695312 12.359375 -0.90625 C 11.234375 -0.113281 9.789062 0.28125 8.03125 0.28125 Z M 4.890625 -8.515625 L 10.84375 -8.515625 C 10.832031 -9.359375 10.554688 -10.054688 10.015625 -10.609375 C 9.484375 -11.160156 8.789062 -11.4375 7.9375 -11.4375 C 7.0625 -11.4375 6.34375 -11.148438 5.78125 -10.578125 C 5.226562 -10.015625 4.929688 -9.328125 4.890625 -8.515625 Z M 4.890625 -8.515625 "/></g></g></g><g fill="#222038" fill-opacity="1"><g transform="translate(86.419089, 33.227098)"><g><path d="M 5.5 -18.90625 L 5.5 0 L 1.5625 0 L 1.5625 -18.90625 Z M 5.5 -18.90625 "/></g></g></g><g fill="#222038" fill-opacity="1"><g transform="translate(92.839421, 33.227098)"><g><path d="M 7.984375 0.28125 C 6.546875 0.28125 5.304688 -0.0234375 4.265625 -0.640625 C 3.222656 -1.253906 2.414062 -2.109375 1.84375 -3.203125 C 1.28125 -4.304688 1 -5.582031 1 -7.03125 C 1 -8.5 1.28125 -9.78125 1.84375 -10.875 C 2.414062 -11.976562 3.222656 -12.832031 4.265625 -13.4375 C 5.304688 -14.050781 6.546875 -14.359375 7.984375 -14.359375 C 9.410156 -14.359375 10.644531 -14.050781 11.6875 -13.4375 C 12.738281 -12.832031 13.546875 -11.976562 14.109375 -10.875 C 14.671875 -9.78125 14.953125 -8.5 14.953125 -7.03125 C 14.953125 -5.582031 14.671875 -4.304688 14.109375 -3.203125 C 13.546875 -2.109375 12.738281 -1.253906 11.6875 -0.640625 C 10.644531 -0.0234375 9.410156 0.28125 7.984375 0.28125 Z M 8 -2.765625 C 8.96875 -2.765625 9.703125 -3.171875 10.203125 -3.984375 C 10.703125 -4.796875 10.953125 -5.820312 10.953125 -7.0625 C 10.953125 -8.300781 10.703125 -9.328125 10.203125 -10.140625 C 9.703125 -10.953125 8.96875 -11.359375 8 -11.359375 C 7.007812 -11.359375 6.257812 -10.953125 5.75 -10.140625 C 5.25 -9.328125 5 -8.300781 5 -7.0625 C 5 -5.820312 5.25 -4.796875 5.75 -3.984375 C 6.257812 -3.171875 7.007812 -2.765625 8 -2.765625 Z M 8 -2.765625 "/></g></g></g><g fill="#9493a2" fill-opacity="1"><g transform="translate(48.167701, 55.213951)"><g><path d="M 1.765625 0 L 1.765625 -14.546875 L 10.546875 -14.546875 L 10.546875 -12.984375 L 3.515625 -12.984375 L 3.515625 -8.0625 L 10.078125 -8.0625 L 10.078125 -6.5 L 3.515625 -6.5 L 3.515625 -1.5625 L 10.65625 -1.5625 L 10.65625 0 Z M 1.765625 0 "/></g></g></g><g fill="#9493a2" fill-opacity="1"><g transform="translate(59.523169, 55.213951)"><g><path d="M 3.203125 -14.546875 L 3.203125 0 L 1.53125 0 L 1.53125 -14.546875 Z M 3.203125 -14.546875 "/></g></g></g><g fill="#9493a2" fill-opacity="1"><g transform="translate(63.665597, 55.213951)"><g><path d="M 6.109375 0.234375 C 5.054688 0.234375 4.148438 0 3.390625 -0.46875 C 2.628906 -0.9375 2.039062 -1.585938 1.625 -2.421875 C 1.21875 -3.265625 1.015625 -4.25 1.015625 -5.375 C 1.015625 -6.488281 1.21875 -7.472656 1.625 -8.328125 C 2.039062 -9.179688 2.613281 -9.847656 3.34375 -10.328125 C 4.082031 -10.804688 4.945312 -11.046875 5.9375 -11.046875 C 6.507812 -11.046875 7.070312 -10.953125 7.625 -10.765625 C 8.175781 -10.578125 8.675781 -10.269531 9.125 -9.84375 C 9.582031 -9.425781 9.945312 -8.867188 10.21875 -8.171875 C 10.488281 -7.472656 10.625 -6.613281 10.625 -5.59375 L 10.625 -4.890625 L 2.703125 -4.890625 C 2.742188 -3.722656 3.070312 -2.828125 3.6875 -2.203125 C 4.3125 -1.585938 5.117188 -1.28125 6.109375 -1.28125 C 6.765625 -1.28125 7.328125 -1.421875 7.796875 -1.703125 C 8.273438 -1.984375 8.617188 -2.410156 8.828125 -2.984375 L 10.453125 -2.53125 C 10.203125 -1.707031 9.691406 -1.039062 8.921875 -0.53125 C 8.148438 -0.0195312 7.210938 0.234375 6.109375 0.234375 Z M 2.703125 -6.328125 L 8.921875 -6.328125 C 8.921875 -7.253906 8.648438 -8.019531 8.109375 -8.625 C 7.566406 -9.238281 6.84375 -9.546875 5.9375 -9.546875 C 5.300781 -9.546875 4.75 -9.394531 4.28125 -9.09375 C 3.8125 -8.800781 3.441406 -8.410156 3.171875 -7.921875 C 2.898438 -7.429688 2.742188 -6.898438 2.703125 -6.328125 Z M 2.703125 -6.328125 "/></g></g></g><g fill="#9493a2" fill-opacity="1"><g transform="translate(74.708685, 55.213951)"><g><path d="M 5.96875 0.234375 C 4.945312 0.234375 4.066406 -0.00390625 3.328125 -0.484375 C 2.585938 -0.972656 2.015625 -1.640625 1.609375 -2.484375 C 1.210938 -3.335938 1.015625 -4.304688 1.015625 -5.390625 C 1.015625 -6.503906 1.21875 -7.484375 1.625 -8.328125 C 2.039062 -9.179688 2.613281 -9.847656 3.34375 -10.328125 C 4.082031 -10.804688 4.945312 -11.046875 5.9375 -11.046875 C 6.707031 -11.046875 7.398438 -10.90625 8.015625 -10.625 C 8.628906 -10.34375 9.128906 -9.945312 9.515625 -9.4375 C 9.910156 -8.925781 10.15625 -8.328125 10.25 -7.640625 L 8.578125 -7.640625 C 8.453125 -8.140625 8.171875 -8.582031 7.734375 -8.96875 C 7.296875 -9.351562 6.707031 -9.546875 5.96875 -9.546875 C 4.988281 -9.546875 4.195312 -9.171875 3.59375 -8.421875 C 3 -7.679688 2.703125 -6.691406 2.703125 -5.453125 C 2.703125 -4.191406 2.992188 -3.179688 3.578125 -2.421875 C 4.171875 -1.660156 4.96875 -1.28125 5.96875 -1.28125 C 6.625 -1.28125 7.179688 -1.445312 7.640625 -1.78125 C 8.109375 -2.113281 8.421875 -2.582031 8.578125 -3.1875 L 10.25 -3.1875 C 10.15625 -2.539062 9.921875 -1.957031 9.546875 -1.4375 C 9.179688 -0.925781 8.691406 -0.519531 8.078125 -0.21875 C 7.472656 0.0820312 6.769531 0.234375 5.96875 0.234375 Z M 5.96875 0.234375 "/></g></g></g><g fill="#9493a2" fill-opacity="1"><g transform="translate(85.269018, 55.213951)"><g><path d="M 6.28125 -10.90625 L 6.28125 -9.484375 L 3.953125 -9.484375 L 3.953125 -3.125 C 3.953125 -2.65625 4.019531 -2.300781 4.15625 -2.0625 C 4.300781 -1.832031 4.484375 -1.675781 4.703125 -1.59375 C 4.921875 -1.519531 5.148438 -1.484375 5.390625 -1.484375 C 5.578125 -1.484375 5.726562 -1.492188 5.84375 -1.515625 C 5.96875 -1.535156 6.066406 -1.550781 6.140625 -1.5625 L 6.484375 -0.0625 C 6.367188 -0.0195312 6.207031 0.0195312 6 0.0625 C 5.800781 0.113281 5.546875 0.140625 5.234375 0.140625 C 4.753906 0.140625 4.285156 0.0390625 3.828125 -0.15625 C 3.378906 -0.363281 3.003906 -0.675781 2.703125 -1.09375 C 2.410156 -1.507812 2.265625 -2.035156 2.265625 -2.671875 L 2.265625 -9.484375 L 0.625 -9.484375 L 0.625 -10.90625 L 2.265625 -10.90625 L 2.265625 -13.515625 L 3.953125 -13.515625 L 3.953125 -10.90625 Z M 6.28125 -10.90625 "/></g></g></g><g fill="#9493a2" fill-opacity="1"><g transform="translate(91.938851, 55.213951)"><g><path d="M 1.53125 0 L 1.53125 -10.90625 L 3.15625 -10.90625 L 3.15625 -9.265625 L 3.265625 -9.265625 C 3.460938 -9.804688 3.820312 -10.242188 4.34375 -10.578125 C 4.863281 -10.910156 5.453125 -11.078125 6.109375 -11.078125 C 6.410156 -11.078125 6.675781 -11.039062 6.90625 -10.96875 C 7.132812 -10.894531 7.332031 -10.800781 7.5 -10.6875 L 6.9375 -9.265625 C 6.8125 -9.328125 6.671875 -9.375 6.515625 -9.40625 C 6.359375 -9.4375 6.175781 -9.453125 5.96875 -9.453125 C 5.164062 -9.453125 4.503906 -9.207031 3.984375 -8.71875 C 3.460938 -8.238281 3.203125 -7.632812 3.203125 -6.90625 L 3.203125 0 Z M 1.53125 0 "/></g></g></g><g fill="#9493a2" fill-opacity="1"><g transform="translate(99.00625, 55.213951)"><g><path d="M 5.96875 0.234375 C 4.976562 0.234375 4.113281 0 3.375 -0.46875 C 2.632812 -0.9375 2.054688 -1.59375 1.640625 -2.4375 C 1.222656 -3.28125 1.015625 -4.265625 1.015625 -5.390625 C 1.015625 -6.535156 1.222656 -7.53125 1.640625 -8.375 C 2.054688 -9.21875 2.632812 -9.875 3.375 -10.34375 C 4.113281 -10.8125 4.976562 -11.046875 5.96875 -11.046875 C 6.945312 -11.046875 7.804688 -10.8125 8.546875 -10.34375 C 9.296875 -9.875 9.875 -9.21875 10.28125 -8.375 C 10.695312 -7.53125 10.90625 -6.535156 10.90625 -5.390625 C 10.90625 -4.265625 10.695312 -3.28125 10.28125 -2.4375 C 9.875 -1.59375 9.296875 -0.9375 8.546875 -0.46875 C 7.804688 0 6.945312 0.234375 5.96875 0.234375 Z M 5.96875 -1.28125 C 6.71875 -1.28125 7.332031 -1.46875 7.8125 -1.84375 C 8.289062 -2.226562 8.644531 -2.734375 8.875 -3.359375 C 9.113281 -3.984375 9.234375 -4.660156 9.234375 -5.390625 C 9.234375 -6.117188 9.113281 -6.796875 8.875 -7.421875 C 8.644531 -8.054688 8.289062 -8.566406 7.8125 -8.953125 C 7.332031 -9.347656 6.71875 -9.546875 5.96875 -9.546875 C 5.21875 -9.546875 4.597656 -9.347656 4.109375 -8.953125 C 3.628906 -8.566406 3.273438 -8.054688 3.046875 -7.421875 C 2.816406 -6.796875 2.703125 -6.117188 2.703125 -5.390625 C 2.703125 -4.660156 2.816406 -3.984375 3.046875 -3.359375 C 3.273438 -2.734375 3.628906 -2.226562 4.109375 -1.84375 C 4.597656 -1.46875 5.21875 -1.28125 5.96875 -1.28125 Z M 5.96875 -1.28125 "/></g></g></g><g fill="#9493a2" fill-opacity="1"><g transform="translate(110.333325, 55.213951)"><g><path d="M 3.203125 -6.5625 L 3.203125 0 L 1.53125 0 L 1.53125 -10.90625 L 3.15625 -10.90625 L 3.15625 -9.203125 L 3.296875 -9.203125 C 3.546875 -9.753906 3.929688 -10.195312 4.453125 -10.53125 C 4.972656 -10.875 5.648438 -11.046875 6.484375 -11.046875 C 7.578125 -11.046875 8.460938 -10.707031 9.140625 -10.03125 C 9.828125 -9.351562 10.171875 -8.320312 10.171875 -6.9375 L 10.171875 0 L 8.5 0 L 8.5 -6.8125 C 8.5 -7.675781 8.273438 -8.347656 7.828125 -8.828125 C 7.378906 -9.304688 6.769531 -9.546875 6 -9.546875 C 5.195312 -9.546875 4.53125 -9.285156 4 -8.765625 C 3.46875 -8.242188 3.203125 -7.507812 3.203125 -6.5625 Z M 3.203125 -6.5625 "/></g></g></g><g fill="#9493a2" fill-opacity="1"><g transform="translate(121.433212, 55.213951)"><g><path d="M 1.53125 0 L 1.53125 -10.90625 L 3.203125 -10.90625 L 3.203125 0 Z M 2.390625 -12.734375 C 2.054688 -12.734375 1.769531 -12.84375 1.53125 -13.0625 C 1.300781 -13.28125 1.1875 -13.546875 1.1875 -13.859375 C 1.1875 -14.171875 1.300781 -14.4375 1.53125 -14.65625 C 1.769531 -14.882812 2.054688 -15 2.390625 -15 C 2.710938 -15 2.988281 -14.882812 3.21875 -14.65625 C 3.457031 -14.4375 3.578125 -14.171875 3.578125 -13.859375 C 3.578125 -13.546875 3.457031 -13.28125 3.21875 -13.0625 C 2.988281 -12.84375 2.710938 -12.734375 2.390625 -12.734375 Z M 2.390625 -12.734375 "/></g></g></g><g fill="#9493a2" fill-opacity="1"><g transform="translate(125.575641, 55.213951)"><g><path d="M 5.96875 0.234375 C 4.945312 0.234375 4.066406 -0.00390625 3.328125 -0.484375 C 2.585938 -0.972656 2.015625 -1.640625 1.609375 -2.484375 C 1.210938 -3.335938 1.015625 -4.304688 1.015625 -5.390625 C 1.015625 -6.503906 1.21875 -7.484375 1.625 -8.328125 C 2.039062 -9.179688 2.613281 -9.847656 3.34375 -10.328125 C 4.082031 -10.804688 4.945312 -11.046875 5.9375 -11.046875 C 6.707031 -11.046875 7.398438 -10.90625 8.015625 -10.625 C 8.628906 -10.34375 9.128906 -9.945312 9.515625 -9.4375 C 9.910156 -8.925781 10.15625 -8.328125 10.25 -7.640625 L 8.578125 -7.640625 C 8.453125 -8.140625 8.171875 -8.582031 7.734375 -8.96875 C 7.296875 -9.351562 6.707031 -9.546875 5.96875 -9.546875 C 4.988281 -9.546875 4.195312 -9.171875 3.59375 -8.421875 C 3 -7.679688 2.703125 -6.691406 2.703125 -5.453125 C 2.703125 -4.191406 2.992188 -3.179688 3.578125 -2.421875 C 4.171875 -1.660156 4.96875 -1.28125 5.96875 -1.28125 C 6.625 -1.28125 7.179688 -1.445312 7.640625 -1.78125 C 8.109375 -2.113281 8.421875 -2.582031 8.578125 -3.1875 L 10.25 -3.1875 C 10.15625 -2.539062 9.921875 -1.957031 9.546875 -1.4375 C 9.179688 -0.925781 8.691406 -0.519531 8.078125 -0.21875 C 7.472656 0.0820312 6.769531 0.234375 5.96875 0.234375 Z M 5.96875 0.234375 "/></g></g></g><g fill="#9493a2" fill-opacity="1"><g transform="translate(136.135973, 55.213951)"><g><path d="M 9.265625 -8.46875 L 7.75 -8.046875 C 7.601562 -8.421875 7.359375 -8.773438 7.015625 -9.109375 C 6.671875 -9.441406 6.128906 -9.609375 5.390625 -9.609375 C 4.722656 -9.609375 4.164062 -9.453125 3.71875 -9.140625 C 3.28125 -8.835938 3.0625 -8.453125 3.0625 -7.984375 C 3.0625 -7.566406 3.210938 -7.238281 3.515625 -7 C 3.828125 -6.757812 4.300781 -6.554688 4.9375 -6.390625 L 6.5625 -6 C 8.488281 -5.519531 9.453125 -4.535156 9.453125 -3.046875 C 9.453125 -2.421875 9.273438 -1.859375 8.921875 -1.359375 C 8.566406 -0.867188 8.066406 -0.476562 7.421875 -0.1875 C 6.785156 0.09375 6.046875 0.234375 5.203125 0.234375 C 4.085938 0.234375 3.164062 -0.00390625 2.4375 -0.484375 C 1.707031 -0.972656 1.242188 -1.679688 1.046875 -2.609375 L 2.640625 -3.015625 C 2.941406 -1.835938 3.785156 -1.25 5.171875 -1.25 C 5.953125 -1.25 6.570312 -1.414062 7.03125 -1.75 C 7.5 -2.082031 7.734375 -2.484375 7.734375 -2.953125 C 7.734375 -3.722656 7.191406 -4.234375 6.109375 -4.484375 L 4.296875 -4.921875 C 3.296875 -5.148438 2.5625 -5.515625 2.09375 -6.015625 C 1.625 -6.515625 1.390625 -7.140625 1.390625 -7.890625 C 1.390625 -8.515625 1.5625 -9.0625 1.90625 -9.53125 C 2.257812 -10 2.738281 -10.367188 3.34375 -10.640625 C 3.945312 -10.910156 4.628906 -11.046875 5.390625 -11.046875 C 6.472656 -11.046875 7.320312 -10.804688 7.9375 -10.328125 C 8.5625 -9.859375 9.003906 -9.238281 9.265625 -8.46875 Z M 9.265625 -8.46875 "/></g></g></g></svg>